<svg xmlns="http://www.w3.org/2000/svg" viewBox="0 0 1000 785.45"><defs><style>.cls-1{fill:#66963f;}.cls-1,.cls-2,.cls-3,.cls-5{fill-rule:evenodd;}.cls-2{fill:#fff;}.cls-3{fill:#8cc541;}.cls-4,.cls-5{fill:#1f3769;}</style></defs><g id="Layer_2" data-name="Layer 2"><g id="Layer_1-2" data-name="Layer 1"><path class="cls-1" d="M405.59,48.85C404,50.1,383.69,66.76,378.52,71h54.35c-5.15-4.22-25.67-20.88-27.28-22.13M295.42,162.56h0c15.11,27.83,69.86,128.83,74.43,137.21V241.41l-16.3-29.26Zm41.43-37.81H472.71L487.06,136q4-3.3,7.84-6.42c-14.07-12.43-28.12-24.8-28.53-25.2H342.43c-.44.4-13.2,12.38-26.21,24.62,2.78,2.27,5.66,4.68,8.61,7Zm-47.24,185h0V231.2l31.76,58.92Zm208.76-88.06h0V253.2l-56.93,46.57v29.44c4.65-3.73,79.46-65,80.55-65.79v-61c-1.56,1.32-11.38,9.29-23.62,19.25"/><path class="cls-2" d="M374.31,74h62.83a1.48,1.48,0,0,0,1.42-1,1.51,1.51,0,0,0-.47-1.73L406.51,45.69a1.53,1.53,0,0,0-1.86,0L373.33,71.24a1.65,1.65,0,0,0-.45,1.73,1.58,1.58,0,0,0,1.43,1m31.28-25.13h0c1.61,1.27,22.13,17.91,27.24,22.12H378.6c5.09-4.21,25.36-20.85,27-22.12m152.86,75.52h0a1.48,1.48,0,0,1,.88,1.36V280.24s-.18,2.29-.56,2.58l-152.18,125c-.08,0-.16,0-.16.1a1.68,1.68,0,0,1-.74.67,1.4,1.4,0,0,1-1.64-.21l-34.27-28.5c-.16-.12-.25-.34-.36-.36S294.93,241.05,289.61,231.2v80a1.42,1.42,0,0,1-.88,1.38,1.4,1.4,0,0,1-1.6-.14l-34.31-28.17a1.62,1.62,0,0,1-.56-1.24V124.7L404.53.32a1.87,1.87,0,0,1,2.1,0ZM405.59,3.34h0l76,61.83S506.8,85.85,527.77,103c-3.89,3.11-15.62,12.72-30.47,24.67l-29.37-25.9a1.59,1.59,0,0,0-1-.38H341.8a1.6,1.6,0,0,0-1,.38l-26.91,25.35-29.58-24.3c42.79-35,120.2-98.52,121.31-99.45M494.9,129.62h0c-14.07-12.47-28.12-24.8-28.53-25.2H342.43c-.46.4-13.2,12.38-26.21,24.62,35.93,29.37,88.12,72.1,89.37,73.11,1.23-1,53.24-43.24,89.31-72.53M403.37,254.74l-30.49-26.15v77.13a1.53,1.53,0,0,1-1.16,1.51,1.51,1.51,0,0,1-1.69-.77S289.29,157.6,289,157c-.22-.16-.72-.59-1.38-1.12l-32.23-27.49V282.36c1,.77,27.08,22.24,31.25,25.63V225.12a1.48,1.48,0,0,1,1.13-1.48,1.77,1.77,0,0,1,1.74.74S371.72,377.2,372,377.7c.42.37,27.32,22.17,31.55,25.73M295.42,162.56h0l74.43,137.21V226Zm110.27,90.08h0c1.28-1.07,61.5-52.26,105.08-89.41l34-28.91h0c6.1-5.18,9.86-8.38,10.32-8.76-2.4-2-23.37-19.2-25.11-20.57-1.84,1.62-123.5,100.26-123.5,100.26a1.3,1.3,0,0,1-1.86,0s-120.93-99-122.81-100.43c-1.72,1.32-22.82,18.6-25.31,20.67l34.61,29.41c24.45,20.94,57,48.7,81.21,69.31ZM556.25,281h0v-152l-9.5,7.74s-32.34,27.46-65.81,56l-73.78,62.77V403.34c4.79-3.91,148-121.52,149.09-122.39m-32.13-83.1h0a1.34,1.34,0,0,0-1.6.19L439,266.15a1.4,1.4,0,0,0-.56,1.19v65.12a1.5,1.5,0,0,0,.87,1.38,1.44,1.44,0,0,0,1.55-.26l83.56-68.27a1.69,1.69,0,0,0,.62-1.19V199.26a1.51,1.51,0,0,0-.94-1.41M522,263.42h0v-61c-4.65,3.75-79.46,64.74-80.55,65.59v61.21c4.65-3.73,79.46-65,80.55-65.79"/><path class="cls-3" d="M372.88,305.72a1.62,1.62,0,0,1-1.13,1.52,1.55,1.55,0,0,1-1.72-.78S289.29,157.6,288.93,157c-.2-.14-.71-.59-1.36-1.08l-32.23-27.53V282.36c1,.77,27.08,22.26,31.24,25.63V225.12a1.49,1.49,0,0,1,1.17-1.48,1.76,1.76,0,0,1,1.71.76S371.75,377.2,372,377.7c.42.37,27.34,22.2,31.55,25.73,0-6.13.52-146.71.52-148.18L372.88,228.6ZM544.77,134.33h0l-34,28.9C467.19,200.38,407,251.57,405.7,252.64l-33.35-28.47c-24.17-20.59-56.74-48.36-81.2-69.26l-34.62-29.42c2.49-2.07,23.59-19.35,25.31-20.67,1.88,1.46,122.81,100.45,122.81,100.45a1.34,1.34,0,0,0,1.86,0S528.17,106.6,530,105c1.74,1.35,22.73,18.59,25.09,20.57-.44.38-4.2,3.56-10.3,8.77Zm2,2.36h0s-32.37,27.47-65.81,55.95l-73.78,62.77v148c4.79-3.95,148-121.54,149.09-122.43v-152c-3.11,2.56-9.5,7.77-9.5,7.77M525.07,264.13h0V199.26a1.57,1.57,0,0,0-1-1.42,1.34,1.34,0,0,0-1.59.2L439,266.15a1.45,1.45,0,0,0-.55,1.19v65.14a1.49,1.49,0,0,0,.87,1.36,1.43,1.43,0,0,0,1.55-.26l83.55-68.27a1.68,1.68,0,0,0,.64-1.18M340.77,101.74h0a1.56,1.56,0,0,1,1-.39H466.91a1.57,1.57,0,0,1,1,.39s14.89,13.18,29.37,25.92c14.85-12,26.59-21.57,30.47-24.7-21-17.12-46.22-37.81-46.22-37.81s-74.35-60.47-76-61.81c-1.11.93-78.52,64.43-121.31,99.45,3.86,3.17,15.24,12.51,29.58,24.32l26.91-25.37m32.56-30.48h0l31.32-25.57a1.53,1.53,0,0,1,1.86,0l31.58,25.57a1.54,1.54,0,0,1,.47,1.7,1.43,1.43,0,0,1-1.42,1H374.32a1.54,1.54,0,0,1-1.44-1,1.58,1.58,0,0,1,.45-1.7"/><path class="cls-4" d="M184.23,573.23a63.67,63.67,0,0,1,.56,8.48v19.82a72.38,72.38,0,0,1-7.33,32.69q-7.32,14.74-38.35,17.09-10.91.74-22.27,1T94,652.5q-52.88,0-72.26-11.2T2.35,593.75V582.89c0-3.61.1-7.23.29-10.84V550.58q0-30.92,16.52-44.36t60.2-13.45H92.58c4.39,0,8.79.09,13.21.24s8.8,0,13.22.12,8.79.12,13.21.12q28.16.71,40.07,11.09t11.94,29.73V540H159.8q0-14.18-5-22.19T127,509.06q-11.48-.48-22.83-.6c-7.58-.07-15.18-.11-22.85-.11q-34.77,0-43.68,7.66T28.2,551.52l-.29,20.53.29,22.41a78.53,78.53,0,0,0,4.31,26.31Q36.83,632.92,61,635.51c2.86.33,5.79.55,8.76.71s5.9.23,8.76.23c2.87.16,5.8.25,8.77.25H109q31.59,0,41.24-6t9.61-28.2V588.56H89.7V573.23Z"/><path class="cls-4" d="M213.81,494H318.4q34.47,0,49.7,10.14t15.23,35.38q0,15.82-4.88,26.79T344.83,581q19,1,27.29,9.08t8.34,21.12v40.1h-25.3V615.22q0-15.57-10.18-21.47t-31.46-5.9h-75v63.46H213.81Zm96.25,79.27q25,0,36.35-5.78t11.34-23.71q0-17-6-25.6t-33-8.62H238.53v63.71Z"/><path class="cls-4" d="M411.19,566.15q0-32.08,9.05-53t62.49-20.87h10.93q44.54,0,67.38,8t22.83,45.05v28q0,14-.56,27.95-1.17,28.79-16.81,40.23T509.16,653h-10a45.89,45.89,0,0,0-4.74-.23h-4.74q-37.36,0-56.6-8.26t-21.55-38.22q-.3-7.78-.3-15.57V566.15Zm25.3,33.74q.84,22.89,10.18,30.43t42.68,7.56q37.65,0,53-5.56T558.88,598c0-4.24,0-8.52.15-12.85s.15-8.68.15-13.09v-26q0-29-14.38-34t-49.71-5h-8.32q-29,0-39.08,6.37t-10.91,32.08l-.58,29Z"/><path class="cls-4" d="M791.32,494V604.14q0,24.3-13,35.5t-50,12.16q-6,.21-12.21.34c-4.13.09-8.29.12-12.51.12q-40.21,0-63.48-7T616.9,604.14V494h25V604.14q0,20.28,10.06,26.54t37.92,6.25H714q29.58,0,41.09-5.67t11.49-27.12V494Z"/><path class="cls-4" d="M832.69,494H942q3.3,0,6.75.23a125.22,125.22,0,0,1,16.39,2,38,38,0,0,1,14.08,5.54c6.31,4.09,10.73,8.89,13.21,14.39A53.46,53.46,0,0,1,997,533.36c0,1.57.06,3.18.15,4.83s.15,3.27.15,4.84c0,1.89,0,3.82-.15,5.78s-.23,4-.41,6a42.15,42.15,0,0,1-3.9,12.85,28.82,28.82,0,0,1-9.62,11,48.34,48.34,0,0,1-23.85,9.2q-13.2,1.41-27.29,1.66H924.9a11.18,11.18,0,0,1-2.15.23H856.83v61.57H832.69Zm83,80.45q29.29,0,42.53-4.72t13.21-27.13q0-16.75-5.9-25T935,509.29h-5.74a16.94,16.94,0,0,1-2.73.23H856.83v64.89Z"/><polygon class="cls-5" points="202.63 162.68 202.63 329.48 158.73 329.48 27.31 183.72 27.31 329.48 0.48 329.48 0.48 162.68 44.1 162.68 175.81 309.2 175.81 162.68 202.63 162.68"/><path class="cls-5" d="M774.28,162.68h28.07l-82.26,166.8H682.75l-83-166.8h27.88l61.89,120.74,6.1,12.94c2.32,5,4.17,9.25,5.65,12.84h.64c3.46-8.25,7.21-16.66,11.37-25.41Z"/><path class="cls-5" d="M953.55,294.23H836.24l-17.8,35.25h-27.7l84.93-166.79h36.74L999,329.48H971.63ZM946,274.86l-51.46-96.73-50.78,96.73Z"/><rect class="cls-4" y="407.21" width="999.14" height="6.38"/><path class="cls-4" d="M124.2,723.23H108.51a12.11,12.11,0,0,0-12.16,12.08v23.22a12.12,12.12,0,0,0,12.16,12.16H124.2a12.1,12.1,0,0,0,12.08-12.16V735.31A12.09,12.09,0,0,0,124.2,723.23Zm4.32,34a6.38,6.38,0,0,1-6.36,6.35H110.55a6.32,6.32,0,0,1-6.35-6.35V736.72a6.32,6.32,0,0,1,6.35-6.35h11.61a6.38,6.38,0,0,1,6.36,6.35Z"/><path class="cls-4" d="M291.36,723.23H275.67a12.1,12.1,0,0,0-12.15,12.08v23.22a12.11,12.11,0,0,0,12.15,12.16h15.69a12.1,12.1,0,0,0,12.08-12.16V735.31A12.09,12.09,0,0,0,291.36,723.23Zm4.32,34a6.37,6.37,0,0,1-6.36,6.35H277.71a6.32,6.32,0,0,1-6.35-6.35V736.72a6.32,6.32,0,0,1,6.35-6.35h11.61a6.37,6.37,0,0,1,6.36,6.35Z"/><path class="cls-4" d="M451.64,723.23H436a12.11,12.11,0,0,0-12.16,12.08v23.22A12.12,12.12,0,0,0,436,770.69h15.69a12.1,12.1,0,0,0,12.08-12.16V735.31A12.09,12.09,0,0,0,451.64,723.23Zm4.32,34a6.38,6.38,0,0,1-6.36,6.35H438a6.32,6.32,0,0,1-6.35-6.35V736.72a6.32,6.32,0,0,1,6.35-6.35H449.6a6.38,6.38,0,0,1,6.36,6.35Z"/><path class="cls-4" d="M255.28,723.62v34.91a12.17,12.17,0,0,1-12.16,12.16H227.44a12.17,12.17,0,0,1-12.16-12.16V723.62h7.84V757.2a6.32,6.32,0,0,0,6.35,6.35h11.61a6.33,6.33,0,0,0,6.36-6.35V723.62Z"/><path class="cls-4" d="M200.16,757.2a6.37,6.37,0,0,1-6.35,6.35H182.2a6.32,6.32,0,0,1-6.35-6.35V736.72a6.32,6.32,0,0,1,6.35-6.35h11.61a6.37,6.37,0,0,1,6.35,6.35v3.09h7.77v-4.5a12.09,12.09,0,0,0-12.08-12.08H180.16A12.11,12.11,0,0,0,168,735.31v23.22a12.12,12.12,0,0,0,12.16,12.16h15.69a12.1,12.1,0,0,0,12.08-12.16v-5.64h-7.77Z"/><path class="cls-4" d="M32.16,757.2a6.37,6.37,0,0,1-6.35,6.35H14.2a6.33,6.33,0,0,1-6.36-6.35V736.72a6.33,6.33,0,0,1,6.36-6.35H25.81a6.37,6.37,0,0,1,6.35,6.35v3.09h7.77v-4.5a12.09,12.09,0,0,0-12.08-12.08H12.16A12.11,12.11,0,0,0,0,735.31v23.22a12.12,12.12,0,0,0,12.16,12.16H27.85a12.1,12.1,0,0,0,12.08-12.16v-5.64H32.16Z"/><path class="cls-4" d="M342,757.2a6.37,6.37,0,0,1-6.35,6.35H324.06a6.32,6.32,0,0,1-6.36-6.35V736.72a6.32,6.32,0,0,1,6.36-6.35h11.61a6.37,6.37,0,0,1,6.35,6.35v3.09h7.77v-4.5a12.1,12.1,0,0,0-12.09-12.08H322a12.11,12.11,0,0,0-12.16,12.08v23.22A12.12,12.12,0,0,0,322,770.69H337.7a12.11,12.11,0,0,0,12.09-12.16v-5.64H342Z"/><path class="cls-4" d="M557.22,738.84v-2a6.65,6.65,0,0,0-6.67-6.59H537.69a6.63,6.63,0,0,0-6.59,6.59V757a6.63,6.63,0,0,0,6.59,6.59h12.86a6.65,6.65,0,0,0,6.67-6.59v-4.39h-15.3v-6.75h23.14v12.4a12.44,12.44,0,0,1-12.39,12.47h-17a12.46,12.46,0,0,1-12.48-12.47V735.63a12.46,12.46,0,0,1,12.48-12.48h17a12.44,12.44,0,0,1,12.39,12.48v3.21Z"/><path class="cls-4" d="M780.37,738.84v-2a6.64,6.64,0,0,0-6.66-6.59H760.84a6.63,6.63,0,0,0-6.59,6.59V757a6.63,6.63,0,0,0,6.59,6.59h12.87a6.64,6.64,0,0,0,6.66-6.59v-4.39H765.08v-6.75h23.14v12.4a12.44,12.44,0,0,1-12.4,12.47h-17a12.45,12.45,0,0,1-12.47-12.47V735.63a12.46,12.46,0,0,1,12.47-12.48h17a12.44,12.44,0,0,1,12.4,12.48v3.21Z"/><path class="cls-4" d="M992.16,738.84v-2a6.65,6.65,0,0,0-6.67-6.59H972.62a6.63,6.63,0,0,0-6.59,6.59V757a6.63,6.63,0,0,0,6.59,6.59h12.87a6.65,6.65,0,0,0,6.67-6.59v-4.39h-15.3v-6.75H1000v12.4a12.44,12.44,0,0,1-12.39,12.47h-17a12.45,12.45,0,0,1-12.47-12.47V735.63a12.46,12.46,0,0,1,12.47-12.48h17A12.44,12.44,0,0,1,1000,735.63v3.21Z"/><polygon class="cls-4" points="507.33 723.6 507.33 761.3 482.46 723.6 479.5 723.6 473.22 723.6 471.46 723.6 471.46 770.25 479.5 770.25 479.5 732.96 504.53 770.25 507.33 770.25 513.24 770.25 515.38 770.25 515.38 723.6 507.33 723.6"/><polygon class="cls-4" points="732.67 723.6 732.67 761.3 707.8 723.6 704.84 723.6 698.56 723.6 696.79 723.6 696.79 770.25 704.84 770.25 704.84 732.96 729.87 770.25 732.67 770.25 738.57 770.25 740.72 770.25 740.72 723.6 732.67 723.6"/><polygon class="cls-4" points="942.27 723.6 942.27 761.3 917.4 723.6 914.44 723.6 908.15 723.6 906.39 723.6 906.39 770.25 914.44 770.25 914.44 732.96 939.46 770.25 942.27 770.25 948.17 770.25 950.31 770.25 950.31 723.6 942.27 723.6"/><polygon class="cls-4" points="80.57 723.6 80.57 742.91 55.19 742.91 55.19 723.6 47.15 723.6 47.15 742.91 47.15 749.68 47.15 770.25 55.19 770.25 55.19 749.68 80.57 749.68 80.57 770.25 88.62 770.25 88.62 749.68 88.62 742.91 88.62 723.6 80.57 723.6"/><path class="cls-4" d="M893.45,770.25h8.21l-19-46.65h-9.25l-18.36,46.65h8.2l3.68-9.34h22.71Zm-24-15.85,8.6-21.85L887,754.4Z"/><rect class="cls-4" x="278.84" y="776.47" width="9.4" height="8.97"/><polygon class="cls-4" points="425.35 707.57 437.67 700.87 442.54 705.04 443.2 705.7 429.5 711.81 425.35 707.57"/><polygon class="cls-4" points="870.86 714.12 883.17 707.43 888.04 711.6 888.71 712.26 875 718.35 870.86 714.12"/><polygon class="cls-4" points="657.93 712.26 662.71 707.53 675.78 714.12 671.63 718.35 657.93 712.26"/><polygon class="cls-4" points="443.63 715.95 435.74 719.77 432.87 715.93 443.58 708.94 455.25 715.39 452.36 720.08 443.63 715.95"/><polygon class="cls-4" points="282.89 715.95 275.01 719.77 272.13 715.93 282.85 708.94 294.51 715.39 291.64 720.08 282.89 715.95"/><path class="cls-4" d="M687.07,720.09v8.32a1,1,0,0,1-1.18,1.18h-1v-6H677V757.2a6.32,6.32,0,0,1-6.35,6.35H659a6.33,6.33,0,0,1-6.36-6.35V723.62h-7.84v34.91A12.17,12.17,0,0,0,657,770.69h15.69a12.17,12.17,0,0,0,12.16-12.16v-24h2.93a5,5,0,0,0,5-5v-9.42Z"/><path class="cls-4" d="M852.41,755.08v3.53a12.09,12.09,0,0,1-12.08,12.08H826a12.08,12.08,0,0,1-12.08-12.08v-3.53a4.39,4.39,0,0,1,.08-1h8v5.81a4,4,0,0,0,4,4.08h14.51a4.05,4.05,0,0,0,4.08-4.08v-6.2a4,4,0,0,0-4.08-4h-14.9A11.93,11.93,0,0,1,813.89,738v-3.06a11.74,11.74,0,0,1,11.69-11.77h14.2a11.74,11.74,0,0,1,11.69,11.77V738h-7.93v-3.92a3.68,3.68,0,0,0-3.68-3.69H825.74a3.76,3.76,0,0,0-3.77,3.69v5.25a3.76,3.76,0,0,0,3.77,3.69h14.59a12.25,12.25,0,0,1,12.08,12.08Z"/><path class="cls-4" d="M418.37,755.08v3.53a12.08,12.08,0,0,1-12.08,12.08H391.94a12.08,12.08,0,0,1-12.08-12.08v-3.53a5,5,0,0,1,.07-1h8v5.81a4,4,0,0,0,4,4.08h14.51a4.06,4.06,0,0,0,4.08-4.08v-6.2a4,4,0,0,0-4.08-4H391.54A11.92,11.92,0,0,1,379.86,738v-3.06a11.73,11.73,0,0,1,11.68-11.77h14.2a11.74,11.74,0,0,1,11.69,11.77V738h-7.92v-3.92a3.69,3.69,0,0,0-3.69-3.69H391.7a3.76,3.76,0,0,0-3.77,3.69v5.25A3.76,3.76,0,0,0,391.7,743h14.59a12.23,12.23,0,0,1,12.08,12.08Z"/><path class="cls-4" d="M628.13,745.82h-.86a7.32,7.32,0,0,0,7.29-7.29v-4.79a10.15,10.15,0,0,0-10.19-10.12H596.68v46.6h28.39A10.87,10.87,0,0,0,636,759.4v-5.73A7.87,7.87,0,0,0,628.13,745.82Zm-23.61-15.45h17.65a4.38,4.38,0,0,1,4.39,4.39v3.85a4.38,4.38,0,0,1-4.39,4.39H604.52ZM628.29,758a5.59,5.59,0,0,1-5.57,5.57h-18.2V749.67h18.2a5.59,5.59,0,0,1,5.57,5.57Z"/></g></g></svg>